<svg id="Layer_1" data-name="Layer 1" xmlns="http://www.w3.org/2000/svg" viewBox="0 0 125.69 176.26"><defs><style>.cls-1{fill:#fff;}.cls-2{font-size:53.91px;font-family:Inter-Medium, Inter;font-weight:500;}</style></defs><rect class="cls-1" width="125.69" height="176.26" rx="6.5"/><path id="icon" d="M98.47,111A14.58,14.58,0,0,1,76.56,123.5,14.2,14.2,0,0,1,74.5,122c.34,5.22,1.69,12.23,6.08,16.69H63.71c4.39-4.48,5.75-11.48,6.09-16.71a14.42,14.42,0,0,1-2.07,1.48A14.58,14.58,0,0,1,45.82,111,20.93,20.93,0,0,1,49.7,98.66c2.14-3.21,22.45-23.91,22.45-23.91s20.3,20.7,22.44,23.91A20.93,20.93,0,0,1,98.47,111Z"/><text class="cls-2" transform="translate(27.21 67.29)">3</text></svg>