<svg id="Layer_1" data-name="Layer 1" xmlns="http://www.w3.org/2000/svg" viewBox="0 0 125.69 176.26"><defs><style>.cls-1{fill:#fff;}.cls-2{font-size:53.91px;font-family:Inter-Medium, Inter;font-weight:500;}</style></defs><rect class="cls-1" width="125.69" height="176.26" rx="6.5"/><path id="icon" d="M99.08,109.14a13.43,13.43,0,0,1-25.15,6.56,1,1,0,0,1,0-.17.11.11,0,0,1-.07,0l.08.14c.23,5.51,1.49,13.55,6.4,18.54H62.76c4.91-5,6.18-13.07,6.42-18.58.07-.11.13-.24.19-.36l-.18,0c0,.13,0,.26,0,.41a13.43,13.43,0,1,1-11.74-20,13.56,13.56,0,0,1,3.46.45,13.43,13.43,0,1,1,21.28,0,13.7,13.7,0,0,1,3.47-.45A13.43,13.43,0,0,1,99.08,109.14Z"/><text class="cls-2" transform="translate(26.61 67.29)">9</text></svg>